# xmcd
#
# Track frame offsets: 
#        150
#        18165
#        41824
#        53262
#        72909
#        89753
#        105312
#        128543
#        143900
#        160636
#        175698
#
# Disc length: 2602 seconds
#
# Revision: 0
# Processed by: cddbd v1.5.2PL0 Copyright (c) Steve Scherf et al.
# Submitted via: ExactAudioCopy v1.3
#
DISCID=810a280b
DTITLE=S.E.Willis and the Willing - Too Much Love [Explicit]
DYEAR=2019
DGENRE=Blues
TTITLE0=Turn Back
TTITLE1=My Happy Home
TTITLE2=I Sure Don't Know Who Does
TTITLE3=Apocalypto
TTITLE4=Crawl off and Die [Explicit]
TTITLE5=Let That Be the Reason
TTITLE6=Wake Up
TTITLE7=Too Much Love
TTITLE8=Honky Tonk Romance
TTITLE9=I Study the Room
TTITLE10=Honky Tonkin' Night and Day
EXTD=
EXTT0=
EXTT1=
EXTT2=
EXTT3=
EXTT4=
EXTT5=
EXTT6=
EXTT7=
EXTT8=
EXTT9=
EXTT10=
PLAYORDER=
